<mxfile host="app.diagrams.net" modified="2024-04-13T05:05:15.125Z" agent="Mozilla/5.0 (Windows NT 10.0; Win64; x64) AppleWebKit/537.36 (KHTML, like Gecko) Chrome/123.0.0.0 Safari/537.36 Edg/123.0.0.0" version="24.0.4" etag="a0kzgYJoAonN_N8j_goA" type="github">
  <diagram name="페이지-1" id="Jny2etC8r5SXH8ArR6qZ">
    <mxGraphModel>
      <root>
        <mxCell id="0" />
        <mxCell id="1" parent="0" />
      </root>
    </mxGraphModel>
  </diagram>
</mxfile>
